# xmcd CD database file
#
# Track frame offsets:
#	150
#	20860
#	37847
#	54918
#	77531
#	94484
#	118121
#
# Disc length: 1827 seconds
#
# Revision: 0
# Processed by: cddbd v1.5.2PL0 Copyright (c) Steve Scherf et al.
# Submitted via: CDex 1.51
#
DISCID=51072107
DTITLE=noon - Holi Wishes
DYEAR=2006
DGENRE=Jazz
TTITLE0=The Christmas Song
TTITLE1=Have Yourself A Merry Little Christmas
TTITLE2=Silent Night
TTITLE3=Last Christmas
TTITLE4=White Christmas
TTITLE5=River
TTITLE6=What Are You Doing New Year's Eve?
EXTD=YEAR: 2006
EXTT0=
EXTT1=
EXTT2=
EXTT3=
EXTT4=
EXTT5=
EXTT6=
PLAYORDER=
